<?xml version="1.0" encoding="UTF-8" standalone="no"?><!DOCTYPE svg PUBLIC "-//W3C//DTD SVG 1.1//EN" "http://www.w3.org/Graphics/SVG/1.1/DTD/svg11.dtd"><svg width="100%" height="100%" viewBox="0 0 65 65" version="1.1" xmlns="http://www.w3.org/2000/svg" xmlns:xlink="http://www.w3.org/1999/xlink" xml:space="preserve" xmlns:serif="http://www.serif.com/" style="fill-rule:evenodd;clip-rule:evenodd;stroke-linejoin:round;stroke-miterlimit:2;"><g id="_2i-reversed" serif:id="2i-reversed"><path d="M46.566,15.667c2.227,0 4.036,1.808 4.036,4.036c0,2.228 -1.809,4.037 -4.036,4.037c-2.228,0 -4.037,-1.809 -4.037,-4.037c0,-2.228 1.809,-4.036 4.037,-4.036Z" style="fill:#57d5a8;"/><path d="M38.696,48.952l-22.542,0l0,-5.256l10.638,-10.555c1.461,-1.596 2.541,-2.989 3.242,-4.179c0.7,-1.189 1.05,-2.319 1.05,-3.388c0,-1.46 -0.369,-2.609 -1.107,-3.444c-0.738,-0.836 -1.792,-1.254 -3.162,-1.254c-1.476,0 -2.639,0.508 -3.49,1.525c-0.851,1.016 -1.276,2.353 -1.276,4.009l-5.908,0c0,-2.003 -0.164,-3.832 0.792,-5.489c0.956,-1.656 2.308,-2.955 4.054,-3.896c1.747,-0.941 3.727,-1.412 5.941,-1.412c3.388,0 6.02,0.813 7.894,2.44c1.875,1.626 2.812,3.922 2.812,6.889c0,1.626 -0.421,3.283 -1.265,4.969c-0.843,1.687 -2.288,3.652 -4.336,5.896l-7.477,7.882l14.14,0l0,5.263Z" style="fill:#fff;fill-rule:nonzero;"/><rect x="43.944" y="26.416" width="5.242" height="22.526" style="fill:#fff;"/><path d="M32.829,0c11.748,0.056 23.176,6.923 28.642,17.589c5.34,10.418 4.449,23.777 -2.481,33.458c-7.089,9.902 -20.071,15.26 -32.272,12.959c-13.002,-2.452 -23.994,-13.478 -25.949,-27.113c-1.698,-11.852 3.711,-24.483 13.909,-31.375c5.239,-3.541 11.53,-5.467 17.838,-5.517c0.104,-0.001 0.208,-0.001 0.313,-0.001Zm-0.192,5.243c-6.792,0.032 -13.513,2.71 -18.446,7.358c-4.081,3.844 -6.933,8.976 -8.007,14.481c-2.032,10.417 2.612,21.858 11.768,27.847c8.7,5.692 20.699,5.787 29.545,0c6.413,-4.195 10.904,-11.179 11.993,-18.78c1.219,-8.506 -1.901,-17.513 -8.114,-23.436c-4.898,-4.67 -11.554,-7.393 -18.389,-7.469c-0.117,-0.001 -0.234,-0.002 -0.35,-0.001Z" style="fill:#fff;"/></g></svg>